<svg xmlns="http://www.w3.org/2000/svg" xmlns:xlink="http://www.w3.org/1999/xlink" width="200" zoomAndPan="magnify" viewBox="0 0 150 149.999998" height="200" preserveAspectRatio="xMidYMid meet" version="1.0"><defs><clipPath id="ee883c0ceb"><path d="M 57 96 L 93 96 L 93 131.976562 L 57 131.976562 Z M 57 96 " clip-rule="nonzero"/></clipPath><clipPath id="e8ea4c5f1e"><path d="M 10 10.476562 L 140 10.476562 L 140 115 L 10 115 Z M 10 10.476562 " clip-rule="nonzero"/></clipPath><clipPath id="b5b5821d99"><path d="M 17 10.476562 L 133 10.476562 L 133 115 L 17 115 Z M 17 10.476562 " clip-rule="nonzero"/></clipPath></defs><rect x="-15" width="180" fill="#ffffff" y="-15" height="179.999997" fill-opacity="1"/><rect x="-15" width="180" fill="#ffffff" y="-15" height="179.999997" fill-opacity="1"/><path fill="#1976d2" d="M 0.0703125 21.195312 L 149.929688 21.195312 L 149.929688 124.828125 L 0.0703125 124.828125 Z M 0.0703125 21.195312 " fill-opacity="1" fill-rule="nonzero"/><g clip-path="url(#ee883c0ceb)"><path fill="#1976d2" d="M 92.839844 114.109375 C 92.839844 114.695312 92.8125 115.277344 92.753906 115.859375 C 92.695312 116.441406 92.609375 117.019531 92.496094 117.59375 C 92.382812 118.167969 92.242188 118.734375 92.070312 119.296875 C 91.902344 119.855469 91.707031 120.40625 91.480469 120.945312 C 91.257812 121.488281 91.007812 122.015625 90.734375 122.53125 C 90.457031 123.046875 90.15625 123.550781 89.832031 124.035156 C 89.507812 124.523438 89.160156 124.992188 88.789062 125.445312 C 88.417969 125.894531 88.027344 126.328125 87.613281 126.742188 C 87.203125 127.15625 86.769531 127.550781 86.316406 127.921875 C 85.867188 128.292969 85.398438 128.640625 84.910156 128.964844 C 84.425781 129.289062 83.925781 129.589844 83.410156 129.867188 C 82.894531 130.144531 82.367188 130.394531 81.828125 130.617188 C 81.289062 130.839844 80.738281 131.039062 80.179688 131.207031 C 79.621094 131.378906 79.054688 131.519531 78.480469 131.632812 C 77.90625 131.746094 77.332031 131.832031 76.75 131.890625 C 76.167969 131.949219 75.585938 131.976562 75 131.976562 C 74.414062 131.976562 73.832031 131.949219 73.25 131.890625 C 72.667969 131.832031 72.09375 131.746094 71.519531 131.632812 C 70.945312 131.519531 70.378906 131.378906 69.820312 131.207031 C 69.261719 131.039062 68.710938 130.839844 68.171875 130.617188 C 67.632812 130.394531 67.105469 130.144531 66.589844 129.867188 C 66.074219 129.589844 65.574219 129.289062 65.089844 128.964844 C 64.601562 128.640625 64.132812 128.292969 63.683594 127.921875 C 63.230469 127.550781 62.796875 127.15625 62.386719 126.742188 C 61.972656 126.328125 61.582031 125.894531 61.210938 125.445312 C 60.839844 124.992188 60.492188 124.523438 60.167969 124.035156 C 59.84375 123.550781 59.542969 123.046875 59.265625 122.53125 C 58.992188 122.015625 58.742188 121.488281 58.519531 120.945312 C 58.292969 120.40625 58.097656 119.855469 57.929688 119.296875 C 57.757812 118.734375 57.617188 118.167969 57.503906 117.59375 C 57.390625 117.019531 57.304688 116.441406 57.246094 115.859375 C 57.1875 115.277344 57.160156 114.695312 57.160156 114.109375 C 57.160156 113.523438 57.1875 112.941406 57.246094 112.359375 C 57.304688 111.773438 57.390625 111.195312 57.503906 110.625 C 57.617188 110.050781 57.757812 109.480469 57.929688 108.921875 C 58.097656 108.363281 58.292969 107.8125 58.519531 107.269531 C 58.742188 106.730469 58.992188 106.203125 59.265625 105.6875 C 59.542969 105.171875 59.84375 104.667969 60.167969 104.183594 C 60.492188 103.695312 60.839844 103.226562 61.210938 102.773438 C 61.582031 102.320312 61.972656 101.886719 62.386719 101.476562 C 62.796875 101.0625 63.230469 100.667969 63.683594 100.296875 C 64.132812 99.925781 64.601562 99.578125 65.089844 99.253906 C 65.574219 98.925781 66.074219 98.628906 66.589844 98.351562 C 67.105469 98.074219 67.632812 97.824219 68.171875 97.601562 C 68.710938 97.378906 69.261719 97.179688 69.820312 97.011719 C 70.378906 96.839844 70.945312 96.699219 71.519531 96.585938 C 72.09375 96.46875 72.667969 96.382812 73.25 96.328125 C 73.832031 96.269531 74.414062 96.242188 75 96.242188 C 75.585938 96.242188 76.167969 96.269531 76.75 96.328125 C 77.332031 96.382812 77.90625 96.46875 78.480469 96.585938 C 79.054688 96.699219 79.621094 96.839844 80.179688 97.011719 C 80.738281 97.179688 81.289062 97.378906 81.828125 97.601562 C 82.367188 97.824219 82.894531 98.074219 83.410156 98.351562 C 83.925781 98.628906 84.425781 98.925781 84.910156 99.253906 C 85.398438 99.578125 85.867188 99.925781 86.316406 100.296875 C 86.769531 100.667969 87.203125 101.0625 87.613281 101.476562 C 88.027344 101.886719 88.417969 102.320312 88.789062 102.773438 C 89.160156 103.226562 89.507812 103.695312 89.832031 104.183594 C 90.15625 104.667969 90.457031 105.171875 90.734375 105.6875 C 91.007812 106.203125 91.257812 106.730469 91.480469 107.269531 C 91.707031 107.8125 91.902344 108.363281 92.070312 108.921875 C 92.242188 109.480469 92.382812 110.050781 92.496094 110.625 C 92.609375 111.195312 92.695312 111.773438 92.753906 112.359375 C 92.8125 112.941406 92.839844 113.523438 92.839844 114.109375 Z M 92.839844 114.109375 " fill-opacity="1" fill-rule="nonzero"/></g><path fill="#263238" d="M 85.703125 114.109375 C 85.703125 114.8125 85.636719 115.511719 85.5 116.199219 C 85.359375 116.890625 85.15625 117.5625 84.890625 118.210938 C 84.621094 118.863281 84.289062 119.480469 83.898438 120.066406 C 83.507812 120.648438 83.066406 121.191406 82.570312 121.691406 C 82.070312 122.1875 81.53125 122.632812 80.945312 123.023438 C 80.363281 123.414062 79.746094 123.742188 79.097656 124.011719 C 78.445312 124.28125 77.777344 124.484375 77.089844 124.625 C 76.398438 124.761719 75.703125 124.828125 75 124.828125 C 74.296875 124.828125 73.601562 124.761719 72.910156 124.625 C 72.222656 124.484375 71.554688 124.28125 70.902344 124.011719 C 70.253906 123.742188 69.636719 123.414062 69.054688 123.023438 C 68.46875 122.632812 67.929688 122.1875 67.429688 121.691406 C 66.933594 121.191406 66.492188 120.648438 66.101562 120.066406 C 65.710938 119.480469 65.378906 118.863281 65.109375 118.210938 C 64.839844 117.5625 64.640625 116.890625 64.5 116.199219 C 64.363281 115.511719 64.296875 114.8125 64.296875 114.109375 C 64.296875 113.40625 64.363281 112.707031 64.5 112.015625 C 64.640625 111.328125 64.839844 110.65625 65.109375 110.007812 C 65.378906 109.355469 65.710938 108.738281 66.101562 108.152344 C 66.492188 107.566406 66.933594 107.027344 67.429688 106.527344 C 67.929688 106.03125 68.46875 105.585938 69.054688 105.195312 C 69.636719 104.804688 70.253906 104.472656 70.902344 104.203125 C 71.554688 103.933594 72.222656 103.730469 72.910156 103.59375 C 73.601562 103.457031 74.296875 103.386719 75 103.386719 C 75.703125 103.386719 76.398438 103.457031 77.089844 103.59375 C 77.777344 103.730469 78.445312 103.933594 79.097656 104.203125 C 79.746094 104.472656 80.363281 104.804688 80.945312 105.195312 C 81.53125 105.585938 82.070312 106.03125 82.570312 106.527344 C 83.066406 107.027344 83.507812 107.566406 83.898438 108.152344 C 84.289062 108.738281 84.621094 109.355469 84.890625 110.007812 C 85.15625 110.65625 85.359375 111.328125 85.5 112.015625 C 85.636719 112.707031 85.703125 113.40625 85.703125 114.109375 Z M 85.703125 114.109375 " fill-opacity="1" fill-rule="nonzero"/><g clip-path="url(#e8ea4c5f1e)"><path fill="#cfd8dc" d="M 132.089844 10.476562 L 78.566406 21.195312 L 71.433594 21.195312 L 17.910156 10.476562 L 10.777344 28.34375 L 10.777344 114.109375 L 139.222656 114.109375 L 139.222656 28.34375 Z M 132.089844 10.476562 " fill-opacity="1" fill-rule="nonzero"/></g><path fill="#b0bec5" d="M 17.910156 103.386719 L 71.433594 103.386719 L 71.433594 114.109375 L 78.566406 114.109375 L 78.566406 103.386719 L 132.089844 103.386719 L 139.222656 114.109375 L 10.777344 114.109375 Z M 78.566406 21.195312 L 71.433594 21.195312 L 71.433594 114.109375 L 78.566406 114.109375 Z M 78.566406 21.195312 " fill-opacity="1" fill-rule="nonzero"/><g clip-path="url(#b5b5821d99)"><path fill="#eceff1" d="M 132.089844 103.386719 C 132.089844 103.386719 78.566406 103.386719 78.566406 114.109375 C 78.566406 114.109375 78.566406 31.917969 78.566406 21.195312 C 78.566406 10.476562 132.089844 10.476562 132.089844 10.476562 Z M 17.910156 103.386719 C 17.910156 103.386719 71.433594 103.386719 71.433594 114.109375 C 71.433594 114.109375 71.433594 31.917969 71.433594 21.195312 C 71.433594 10.476562 17.910156 10.476562 17.910156 10.476562 Z M 17.910156 103.386719 " fill-opacity="1" fill-rule="nonzero"/></g><path fill="#2196f3" d="M 110.324219 85.519531 L 100.332031 85.519531 L 100.332031 46.210938 L 110.324219 46.210938 Z M 110.679688 33.703125 C 110.679688 30.847656 108.183594 28.34375 105.328125 28.34375 C 102.472656 28.34375 99.976562 30.847656 99.976562 33.703125 C 99.976562 36.5625 102.472656 39.066406 105.328125 39.066406 C 108.183594 39.066406 110.679688 36.5625 110.679688 33.703125 " fill-opacity="1" fill-rule="nonzero"/></svg>