<svg xmlns="http://www.w3.org/2000/svg" xmlns:xlink="http://www.w3.org/1999/xlink" width="200" zoomAndPan="magnify" viewBox="0 0 150 149.999998" height="200" preserveAspectRatio="xMidYMid meet" version="1.0"><rect x="-15" width="180" fill="#ffffff" y="-15" height="179.999997" fill-opacity="1"/><rect x="-15" width="180" fill="#ffffff" y="-15" height="179.999997" fill-opacity="1"/><path fill="#ffffff" d="M 24.214844 152.195312 C 21.921875 152.195312 20.058594 150.332031 20.058594 148.042969 L 20.058594 126.574219 C 19.660156 126.636719 19.261719 126.664062 18.863281 126.664062 C 16.359375 126.664062 14.035156 125.320312 12.8125 123.183594 C 10.519531 119.214844 6.332031 112.007812 4.070312 108.191406 C 3.09375 106.539062 2.816406 104.617188 3.335938 102.785156 C 3.828125 100.953125 5.078125 99.394531 6.730469 98.480469 L 6.945312 98.355469 L -1.859375 82.414062 C -3.203125 79.941406 -3.632812 77.070312 -3.019531 74.292969 C -2.929688 73.894531 -2.804688 73.4375 -2.652344 72.980469 C -1.707031 70.292969 0.191406 68.03125 2.695312 66.65625 L 10.214844 62.535156 C 13.089844 60.949219 16.664062 60.671875 19.71875 61.773438 C 20.394531 62.015625 21.035156 62.320312 21.644531 62.6875 C 22.042969 60.949219 22.5 59.238281 23.019531 57.527344 C 23.417969 56.273438 23.878906 54.960938 24.367188 53.617188 C 25.3125 51.175781 26.414062 48.761719 27.636719 46.410156 L 23.144531 22.835938 C 22.746094 20.730469 23.203125 18.5 24.457031 16.757812 C 25.679688 14.988281 27.636719 13.796875 29.746094 13.460938 L 31.304688 13.214844 L 114.441406 0.144531 C 114.898438 0.0859375 115.359375 0.0546875 115.816406 0.0546875 C 120.0625 0.0546875 123.671875 3.078125 124.433594 7.261719 L 126.542969 19.109375 C 127.277344 18.683594 128.074219 18.378906 128.898438 18.195312 C 129.476562 18.070312 130.058594 18.011719 130.640625 18.011719 C 140.085938 18.011719 147.785156 33.738281 151.210938 49.34375 C 153.625 60.367188 153.867188 70.996094 151.851562 77.925781 L 151.851562 148.042969 C 151.851562 150.332031 149.988281 152.195312 147.695312 152.195312 Z M 24.214844 152.195312 " fill-opacity="1" fill-rule="nonzero"/><path fill="#ffcc51" d="M 148.03125 77.195312 L 148.03125 148.042969 L 97.964844 148.042969 L 92.433594 145.691406 L 86.902344 148.042969 L 24.582031 148.042969 L 24.582031 77.101562 C 24.582031 76.859375 24.582031 76.644531 24.582031 76.398438 C 24.582031 76.277344 24.582031 76.15625 24.582031 76.035156 C 24.609375 74.933594 24.640625 73.835938 24.734375 72.765625 C 25.070312 67.910156 25.984375 63.238281 27.390625 58.78125 C 27.757812 57.527344 28.1875 56.304688 28.675781 55.113281 C 29.746094 52.335938 31 49.679688 32.433594 47.113281 C 33.75 44.730469 35.246094 42.441406 36.867188 40.273438 C 37.691406 39.175781 38.546875 38.105469 39.433594 37.066406 C 39.648438 36.792969 39.894531 36.546875 40.105469 36.273438 C 42.246094 33.859375 44.539062 31.632812 47.015625 29.585938 C 47.441406 29.21875 47.902344 28.882812 48.328125 28.515625 C 49.367188 27.722656 50.40625 26.957031 51.476562 26.226562 C 51.996094 25.859375 52.546875 25.523438 53.066406 25.15625 C 54.351562 24.363281 55.632812 23.570312 56.949219 22.867188 C 57.007812 22.835938 57.070312 22.804688 57.164062 22.773438 C 57.773438 22.4375 58.414062 22.132812 59.027344 21.828125 C 63.121094 19.8125 67.460938 18.226562 71.984375 17.15625 C 76.570312 16.058594 81.371094 15.476562 86.289062 15.476562 C 89.652344 15.476562 92.953125 15.75 96.164062 16.269531 C 100.441406 16.941406 104.539062 18.070312 108.480469 19.570312 C 110.46875 20.332031 112.421875 21.1875 114.289062 22.164062 C 116.609375 23.324219 118.84375 24.667969 120.980469 26.105469 C 121.46875 26.441406 121.960938 26.777344 122.417969 27.113281 C 123.089844 27.570312 123.730469 28.058594 124.34375 28.578125 C 124.589844 28.761719 124.832031 28.945312 125.078125 29.15625 C 125.109375 29.15625 125.109375 29.1875 125.136719 29.21875 C 126.820312 30.5625 128.410156 32.027344 129.9375 33.554688 C 130.457031 34.074219 131.007812 34.625 131.496094 35.171875 C 132.839844 36.609375 134.09375 38.105469 135.285156 39.664062 C 137.851562 42.992188 140.054688 46.5625 141.886719 50.382812 C 142.773438 52.214844 143.570312 54.105469 144.273438 56.03125 C 144.273438 56.0625 144.300781 56.121094 144.332031 56.183594 C 144.363281 56.246094 144.394531 56.335938 144.394531 56.398438 C 144.578125 56.886719 144.761719 57.375 144.914062 57.863281 C 144.914062 57.894531 144.945312 57.925781 144.945312 57.953125 C 144.976562 58.046875 145.003906 58.136719 145.035156 58.230469 C 145.066406 58.320312 145.097656 58.414062 145.128906 58.503906 C 145.433594 59.421875 145.707031 60.335938 145.921875 61.285156 C 145.953125 61.40625 145.984375 61.527344 146.015625 61.648438 C 146.378906 62.964844 146.65625 64.335938 146.929688 65.679688 C 146.960938 65.804688 146.992188 65.925781 146.992188 66.046875 C 147.296875 67.636719 147.511719 69.253906 147.664062 70.871094 C 147.664062 70.996094 147.695312 71.148438 147.695312 71.269531 C 147.785156 72.125 147.847656 72.980469 147.878906 73.835938 C 147.878906 73.957031 147.910156 74.109375 147.910156 74.230469 C 147.9375 74.84375 147.96875 75.453125 147.96875 76.0625 C 147.96875 76.1875 147.96875 76.308594 147.96875 76.429688 C 148.03125 76.734375 148.03125 76.949219 148.03125 77.195312 Z M 148.03125 77.195312 " fill-opacity="1" fill-rule="nonzero"/><path fill="#fad2a7" d="M 34.574219 68.308594 C 34.574219 70.261719 32.984375 71.851562 31.03125 71.851562 C 29.074219 71.851562 27.484375 70.261719 27.484375 68.308594 C 27.484375 66.351562 29.074219 64.765625 31.03125 64.765625 C 33.015625 64.765625 34.574219 66.351562 34.574219 68.308594 Z M 34.574219 68.308594 " fill-opacity="1" fill-rule="nonzero"/><path fill="#fad2a7" d="M 97.964844 148.042969 L 86.902344 148.042969 C 86.992188 145.078125 89.4375 142.699219 92.433594 142.699219 C 95.429688 142.699219 97.875 145.078125 97.964844 148.042969 Z M 97.964844 148.042969 " fill-opacity="1" fill-rule="nonzero"/><path fill="#fad2a7" d="M 138.496094 141.171875 C 138.496094 141.652344 138.402344 142.117188 138.21875 142.5625 C 138.035156 143.007812 137.769531 143.398438 137.429688 143.742188 C 137.089844 144.082031 136.695312 144.34375 136.25 144.527344 C 135.804688 144.710938 135.339844 144.804688 134.859375 144.804688 C 134.375 144.804688 133.910156 144.710938 133.464844 144.527344 C 133.019531 144.34375 132.625 144.082031 132.285156 143.742188 C 131.945312 143.398438 131.683594 143.007812 131.496094 142.5625 C 131.3125 142.117188 131.21875 141.652344 131.21875 141.171875 C 131.21875 140.6875 131.3125 140.226562 131.496094 139.78125 C 131.683594 139.335938 131.945312 138.941406 132.285156 138.601562 C 132.625 138.261719 133.019531 137.996094 133.464844 137.8125 C 133.910156 137.628906 134.375 137.535156 134.859375 137.535156 C 135.339844 137.535156 135.804688 137.628906 136.25 137.8125 C 136.695312 137.996094 137.089844 138.261719 137.429688 138.601562 C 137.769531 138.941406 138.035156 139.335938 138.21875 139.78125 C 138.402344 140.226562 138.496094 140.6875 138.496094 141.171875 Z M 138.496094 141.171875 " fill-opacity="1" fill-rule="nonzero"/><path fill="#fad2a7" d="M 146.015625 94.785156 C 146.015625 95.265625 145.921875 95.730469 145.738281 96.175781 C 145.550781 96.621094 145.289062 97.011719 144.949219 97.351562 C 144.609375 97.695312 144.214844 97.957031 143.769531 98.140625 C 143.324219 98.324219 142.859375 98.417969 142.375 98.417969 C 141.894531 98.417969 141.429688 98.324219 140.984375 98.140625 C 140.539062 97.957031 140.144531 97.695312 139.804688 97.351562 C 139.464844 97.011719 139.199219 96.621094 139.015625 96.175781 C 138.832031 95.730469 138.738281 95.265625 138.738281 94.785156 C 138.738281 94.300781 138.832031 93.839844 139.015625 93.394531 C 139.199219 92.949219 139.464844 92.554688 139.804688 92.214844 C 140.144531 91.875 140.539062 91.609375 140.984375 91.425781 C 141.429688 91.242188 141.894531 91.148438 142.375 91.148438 C 142.859375 91.148438 143.324219 91.242188 143.769531 91.425781 C 144.214844 91.609375 144.609375 91.875 144.949219 92.214844 C 145.289062 92.554688 145.550781 92.949219 145.738281 93.394531 C 145.921875 93.839844 146.015625 94.300781 146.015625 94.785156 Z M 146.015625 94.785156 " fill-opacity="1" fill-rule="nonzero"/><path fill="#fad2a7" d="M 33.199219 133.433594 C 33.679688 133.464844 34.136719 133.589844 34.566406 133.808594 C 35 134.023438 35.371094 134.3125 35.6875 134.675781 C 36.003906 135.039062 36.238281 135.449219 36.390625 135.90625 C 36.542969 136.363281 36.601562 136.835938 36.566406 137.316406 C 36.535156 137.796875 36.410156 138.25 36.195312 138.683594 C 35.976562 139.113281 35.6875 139.488281 35.324219 139.800781 C 34.957031 140.117188 34.546875 140.351562 34.089844 140.503906 C 33.632812 140.65625 33.164062 140.714844 32.683594 140.683594 C 32.203125 140.648438 31.746094 140.523438 31.3125 140.308594 C 30.882812 140.09375 30.507812 139.800781 30.191406 139.4375 C 29.875 139.074219 29.640625 138.664062 29.488281 138.207031 C 29.335938 137.75 29.277344 137.28125 29.3125 136.800781 C 29.347656 136.320312 29.472656 135.863281 29.6875 135.433594 C 29.902344 135 30.191406 134.628906 30.558594 134.3125 C 30.921875 133.996094 31.332031 133.761719 31.789062 133.609375 C 32.246094 133.457031 32.71875 133.398438 33.199219 133.433594 Z M 33.199219 133.433594 " fill-opacity="1" fill-rule="nonzero"/><path fill="#5c67c5" d="M 138.066406 133.324219 L 57.039062 141.8125 L 54.320312 142.085938 C 52.363281 142.300781 50.558594 140.957031 50.164062 139.003906 L 27.546875 22.011719 C 27.148438 19.90625 28.585938 17.859375 30.691406 17.523438 L 32.253906 17.277344 L 115.417969 4.238281 C 117.894531 3.839844 120.21875 5.519531 120.644531 7.964844 L 142.070312 127.917969 C 142.589844 130.574219 140.726562 133.046875 138.066406 133.324219 Z M 138.066406 133.324219 " fill-opacity="1" fill-rule="nonzero"/><path fill="#fad2a7" d="M 36.257812 20.636719 L 57.4375 130.300781 L 138.738281 121.78125 L 117.773438 8.726562 Z M 36.257812 20.636719 " fill-opacity="1" fill-rule="nonzero"/><path fill="#a65d19" d="M 61.714844 26.53125 C 62.023438 26.46875 62.265625 26.53125 62.480469 26.714844 C 62.695312 26.867188 62.816406 27.113281 62.878906 27.417969 L 64.988281 40.578125 C 65.046875 40.914062 64.988281 41.191406 64.804688 41.433594 C 64.621094 41.679688 64.375 41.832031 64.070312 41.890625 C 63.917969 41.921875 63.765625 41.921875 63.582031 41.890625 C 63.398438 41.859375 63.273438 41.800781 63.152344 41.707031 L 52.300781 31.476562 L 52.761719 31.113281 L 54.5625 42.378906 C 54.59375 42.65625 54.5625 42.898438 54.378906 43.144531 C 54.226562 43.359375 53.984375 43.511719 53.707031 43.539062 C 53.402344 43.601562 53.128906 43.539062 52.914062 43.359375 C 52.699219 43.175781 52.578125 42.960938 52.515625 42.6875 L 50.40625 29.492188 C 50.347656 29.15625 50.40625 28.882812 50.589844 28.636719 C 50.773438 28.394531 51.019531 28.242188 51.324219 28.210938 C 51.476562 28.179688 51.660156 28.179688 51.84375 28.242188 C 52.027344 28.273438 52.179688 28.363281 52.300781 28.484375 L 62.910156 38.503906 L 62.632812 38.867188 L 60.890625 27.691406 C 60.828125 27.386719 60.890625 27.140625 61.042969 26.929688 C 61.226562 26.714844 61.441406 26.5625 61.714844 26.53125 Z M 61.714844 26.53125 " fill-opacity="1" fill-rule="nonzero"/><path fill="#a65d19" d="M 67.402344 25.613281 L 74.980469 24.394531 C 75.285156 24.332031 75.5625 24.394531 75.808594 24.578125 C 76.050781 24.761719 76.203125 24.972656 76.234375 25.277344 C 76.296875 25.585938 76.203125 25.859375 76.050781 26.074219 C 75.867188 26.285156 75.625 26.441406 75.316406 26.46875 L 68.683594 27.570312 L 68.839844 27.171875 L 69.632812 32.058594 L 69.386719 31.875 L 74.980469 30.988281 C 75.285156 30.929688 75.5625 30.988281 75.808594 31.171875 C 76.050781 31.355469 76.203125 31.601562 76.234375 31.90625 C 76.296875 32.210938 76.203125 32.484375 76.050781 32.699219 C 75.867188 32.914062 75.625 33.066406 75.316406 33.097656 L 69.753906 33.984375 L 69.878906 33.769531 L 70.671875 38.808594 L 70.488281 38.65625 L 77.027344 37.617188 C 77.335938 37.554688 77.609375 37.648438 77.855469 37.800781 C 78.097656 37.984375 78.25 38.195312 78.28125 38.472656 C 78.34375 38.777344 78.25 39.050781 78.097656 39.265625 C 77.914062 39.511719 77.671875 39.632812 77.367188 39.691406 L 69.785156 40.914062 C 69.480469 40.976562 69.203125 40.914062 68.960938 40.730469 C 68.714844 40.546875 68.5625 40.304688 68.5 40 L 66.421875 26.929688 C 66.363281 26.59375 66.421875 26.316406 66.636719 26.074219 C 66.851562 25.796875 67.097656 25.675781 67.402344 25.613281 Z M 67.402344 25.613281 " fill-opacity="1" fill-rule="nonzero"/><path fill="#a65d19" d="M 96.164062 20.941406 C 96.46875 20.882812 96.742188 20.972656 97.019531 21.125 C 97.292969 21.308594 97.476562 21.554688 97.539062 21.921875 C 97.570312 22.011719 97.539062 22.164062 97.539062 22.316406 L 95.152344 36.152344 C 95.125 36.394531 95 36.578125 94.847656 36.730469 C 94.664062 36.882812 94.480469 36.976562 94.296875 37.035156 C 94.085938 37.066406 93.871094 37.035156 93.65625 36.945312 C 93.441406 36.851562 93.257812 36.699219 93.105469 36.488281 L 88.367188 28.945312 L 88.582031 29.003906 L 86.441406 37.554688 C 86.351562 37.800781 86.230469 38.011719 86.046875 38.167969 C 85.863281 38.320312 85.679688 38.410156 85.433594 38.441406 C 85.25 38.441406 85.039062 38.410156 84.824219 38.347656 C 84.609375 38.257812 84.457031 38.105469 84.335938 37.921875 L 77.761719 25.523438 C 77.703125 25.371094 77.640625 25.277344 77.640625 25.15625 C 77.578125 24.789062 77.671875 24.484375 77.886719 24.242188 C 78.097656 23.996094 78.375 23.84375 78.648438 23.78125 C 78.894531 23.753906 79.109375 23.78125 79.320312 23.875 C 79.535156 23.964844 79.6875 24.117188 79.8125 24.332031 L 85.402344 35.019531 L 85.007812 35.082031 L 87.023438 26.410156 C 87.085938 26.164062 87.207031 25.980469 87.359375 25.828125 C 87.511719 25.675781 87.726562 25.585938 87.941406 25.554688 C 88.183594 25.492188 88.398438 25.523438 88.582031 25.613281 C 88.796875 25.707031 88.949219 25.859375 89.070312 26.074219 L 93.472656 33.464844 L 93.167969 33.675781 L 95.125 21.859375 C 95.152344 21.613281 95.277344 21.402344 95.460938 21.25 C 95.734375 21.09375 95.949219 21.003906 96.164062 20.941406 Z M 96.164062 20.941406 " fill-opacity="1" fill-rule="nonzero"/><path fill="#a65d19" d="M 106.554688 35.296875 C 105.515625 35.449219 104.539062 35.480469 103.683594 35.296875 C 102.824219 35.144531 101.96875 34.777344 101.113281 34.226562 C 100.929688 34.136719 100.777344 34.011719 100.6875 33.859375 C 100.5625 33.707031 100.503906 33.554688 100.472656 33.371094 C 100.441406 33.097656 100.503906 32.820312 100.65625 32.578125 C 100.839844 32.332031 101.054688 32.179688 101.359375 32.121094 C 101.601562 32.089844 101.816406 32.121094 102.0625 32.242188 C 102.703125 32.667969 103.34375 32.945312 103.988281 33.128906 C 104.628906 33.28125 105.363281 33.3125 106.1875 33.1875 C 106.769531 33.097656 107.289062 32.914062 107.746094 32.640625 C 108.207031 32.363281 108.542969 32.058594 108.785156 31.691406 C 109.03125 31.324219 109.121094 30.929688 109.03125 30.5 C 108.9375 29.980469 108.726562 29.554688 108.390625 29.28125 C 108.023438 28.972656 107.5625 28.761719 106.953125 28.636719 C 106.339844 28.515625 105.636719 28.425781 104.84375 28.394531 C 104.078125 28.363281 103.40625 28.300781 102.796875 28.148438 C 102.183594 27.996094 101.632812 27.785156 101.175781 27.507812 C 100.71875 27.203125 100.320312 26.835938 100.042969 26.378906 C 99.738281 25.921875 99.554688 25.371094 99.433594 24.699219 C 99.28125 23.8125 99.402344 23.019531 99.769531 22.285156 C 100.136719 21.585938 100.6875 20.972656 101.449219 20.484375 C 102.183594 19.996094 103.070312 19.691406 104.078125 19.539062 C 104.996094 19.386719 105.882812 19.386719 106.738281 19.539062 C 107.59375 19.691406 108.296875 19.964844 108.878906 20.363281 C 109.273438 20.605469 109.519531 20.914062 109.550781 21.25 C 109.582031 21.523438 109.519531 21.765625 109.335938 22.042969 C 109.152344 22.316406 108.9375 22.4375 108.664062 22.5 C 108.449219 22.53125 108.265625 22.5 108.113281 22.410156 C 107.839844 22.195312 107.503906 22.011719 107.074219 21.890625 C 106.648438 21.765625 106.1875 21.644531 105.730469 21.585938 C 105.269531 21.523438 104.8125 21.523438 104.414062 21.585938 C 103.773438 21.675781 103.222656 21.859375 102.765625 22.132812 C 102.335938 22.378906 102 22.683594 101.816406 23.050781 C 101.632812 23.417969 101.542969 23.78125 101.632812 24.210938 C 101.726562 24.699219 101.910156 25.097656 102.246094 25.371094 C 102.582031 25.644531 103.007812 25.828125 103.558594 25.949219 C 104.109375 26.074219 104.722656 26.164062 105.394531 26.195312 C 106.21875 26.257812 106.984375 26.316406 107.65625 26.441406 C 108.328125 26.5625 108.910156 26.746094 109.398438 27.019531 C 109.886719 27.292969 110.285156 27.660156 110.621094 28.148438 C 110.925781 28.636719 111.140625 29.25 111.261719 29.980469 C 111.414062 30.867188 111.261719 31.660156 110.894531 32.394531 C 110.496094 33.128906 109.949219 33.738281 109.183594 34.226562 C 108.417969 34.808594 107.5625 35.113281 106.554688 35.296875 Z M 106.554688 35.296875 " fill-opacity="1" fill-rule="nonzero"/><path fill="#a65d19" d="M 42.582031 25.554688 C 42.429688 25.554688 42.277344 25.433594 42.246094 25.277344 C 42.214844 25.097656 42.339844 24.914062 42.523438 24.882812 L 113.21875 13.125 C 113.402344 13.09375 113.585938 13.214844 113.617188 13.398438 C 113.644531 13.582031 113.523438 13.765625 113.339844 13.796875 L 42.644531 25.554688 C 42.644531 25.554688 42.613281 25.554688 42.582031 25.554688 Z M 42.582031 25.554688 " fill-opacity="1" fill-rule="nonzero"/><path fill="#a65d19" d="M 46.710938 50.257812 C 46.554688 50.257812 46.402344 50.136719 46.371094 49.984375 C 46.34375 49.800781 46.464844 49.617188 46.648438 49.585938 L 117.101562 36.457031 C 117.28125 36.425781 117.464844 36.546875 117.496094 36.730469 C 117.527344 36.914062 117.40625 37.097656 117.222656 37.128906 L 46.769531 50.257812 C 46.769531 50.257812 46.738281 50.257812 46.710938 50.257812 Z M 46.710938 50.257812 " fill-opacity="1" fill-rule="nonzero"/><path fill="#ffcc51" d="M 48.726562 56.304688 L 55.328125 91.851562 L 92.800781 87.089844 L 86.199219 48.519531 Z M 48.726562 56.304688 " fill-opacity="1" fill-rule="nonzero"/><path fill="#a65d19" d="M 93.015625 62.503906 C 92.863281 62.503906 92.738281 62.382812 92.710938 62.230469 C 92.679688 62.046875 92.800781 61.894531 92.984375 61.863281 L 120.308594 57.617188 C 120.492188 57.589844 120.644531 57.710938 120.675781 57.894531 C 120.707031 58.078125 120.585938 58.230469 120.402344 58.261719 L 93.074219 62.503906 C 93.046875 62.503906 93.046875 62.503906 93.015625 62.503906 Z M 93.015625 62.503906 " fill-opacity="1" fill-rule="nonzero"/><path fill="#a65d19" d="M 93.75 67.207031 C 93.59375 67.207031 93.472656 67.085938 93.441406 66.933594 C 93.410156 66.75 93.535156 66.597656 93.71875 66.566406 L 121.042969 62.320312 C 121.226562 62.292969 121.378906 62.414062 121.410156 62.597656 C 121.441406 62.78125 121.316406 62.933594 121.132812 62.964844 L 93.808594 67.207031 C 93.777344 67.207031 93.777344 67.207031 93.75 67.207031 Z M 93.75 67.207031 " fill-opacity="1" fill-rule="nonzero"/><path fill="#a65d19" d="M 94.480469 71.910156 C 94.328125 71.910156 94.207031 71.789062 94.175781 71.636719 C 94.144531 71.453125 94.269531 71.300781 94.449219 71.269531 L 121.777344 67.023438 C 121.960938 66.992188 122.113281 67.117188 122.144531 67.300781 C 122.171875 67.484375 122.050781 67.636719 121.867188 67.664062 L 94.542969 71.910156 C 94.511719 71.910156 94.511719 71.910156 94.480469 71.910156 Z M 94.480469 71.910156 " fill-opacity="1" fill-rule="nonzero"/><path fill="#a65d19" d="M 95.214844 76.613281 C 95.0625 76.613281 94.941406 76.492188 94.910156 76.339844 C 94.878906 76.15625 95 76.003906 95.183594 75.972656 L 122.507812 71.726562 C 122.691406 71.695312 122.847656 71.820312 122.875 72.003906 C 122.90625 72.1875 122.785156 72.339844 122.601562 72.367188 L 95.277344 76.613281 C 95.246094 76.613281 95.246094 76.613281 95.214844 76.613281 Z M 95.214844 76.613281 " fill-opacity="1" fill-rule="nonzero"/><path fill="#a65d19" d="M 95.949219 81.316406 C 95.796875 81.316406 95.671875 81.195312 95.644531 81.042969 C 95.613281 80.859375 95.734375 80.707031 95.917969 80.675781 L 123.242188 76.429688 C 123.425781 76.398438 123.578125 76.523438 123.609375 76.707031 C 123.640625 76.886719 123.519531 77.042969 123.335938 77.070312 L 96.011719 81.316406 C 95.980469 81.316406 95.980469 81.316406 95.949219 81.316406 Z M 95.949219 81.316406 " fill-opacity="1" fill-rule="nonzero"/><path fill="#a65d19" d="M 60.035156 99.882812 C 59.882812 99.882812 59.730469 99.761719 59.730469 99.609375 C 59.699219 99.425781 59.820312 99.273438 60.003906 99.242188 L 87.359375 95.273438 C 87.542969 95.242188 87.695312 95.363281 87.726562 95.546875 C 87.757812 95.730469 87.636719 95.882812 87.453125 95.914062 L 60.097656 99.882812 C 60.066406 99.882812 60.066406 99.882812 60.035156 99.882812 Z M 60.035156 99.882812 " fill-opacity="1" fill-rule="nonzero"/><path fill="#a65d19" d="M 60.738281 104.585938 C 60.585938 104.585938 60.433594 104.464844 60.433594 104.3125 C 60.402344 104.128906 60.523438 103.976562 60.707031 103.945312 L 88.0625 99.976562 C 88.246094 99.945312 88.398438 100.066406 88.429688 100.25 C 88.460938 100.433594 88.339844 100.585938 88.15625 100.617188 L 60.800781 104.585938 C 60.769531 104.585938 60.738281 104.585938 60.738281 104.585938 Z M 60.738281 104.585938 " fill-opacity="1" fill-rule="nonzero"/><path fill="#a65d19" d="M 61.410156 109.320312 C 61.257812 109.320312 61.105469 109.199219 61.105469 109.046875 C 61.074219 108.863281 61.195312 108.710938 61.378906 108.679688 L 88.734375 104.707031 C 88.917969 104.679688 89.070312 104.800781 89.101562 104.984375 C 89.132812 105.167969 89.011719 105.320312 88.828125 105.351562 L 61.472656 109.320312 C 61.441406 109.320312 61.441406 109.320312 61.410156 109.320312 Z M 61.410156 109.320312 " fill-opacity="1" fill-rule="nonzero"/><path fill="#a65d19" d="M 62.082031 114.023438 C 61.929688 114.023438 61.777344 113.902344 61.777344 113.746094 C 61.746094 113.566406 61.871094 113.410156 62.050781 113.382812 L 89.40625 109.410156 C 89.589844 109.382812 89.746094 109.503906 89.773438 109.6875 C 89.804688 109.871094 89.683594 110.023438 89.5 110.054688 L 62.144531 114.023438 C 62.113281 114.023438 62.113281 114.023438 62.082031 114.023438 Z M 62.082031 114.023438 " fill-opacity="1" fill-rule="nonzero"/><path fill="#a65d19" d="M 62.785156 118.726562 C 62.632812 118.726562 62.480469 118.601562 62.480469 118.449219 C 62.449219 118.265625 62.570312 118.113281 62.753906 118.085938 L 90.109375 114.113281 C 90.292969 114.082031 90.445312 114.207031 90.476562 114.390625 C 90.507812 114.574219 90.386719 114.726562 90.203125 114.753906 L 62.847656 118.726562 C 62.816406 118.726562 62.785156 118.726562 62.785156 118.726562 Z M 62.785156 118.726562 " fill-opacity="1" fill-rule="nonzero"/><path fill="#a65d19" d="M 98.300781 94.203125 C 98.148438 94.203125 97.996094 94.082031 97.996094 93.929688 C 97.964844 93.746094 98.089844 93.59375 98.273438 93.5625 L 125.628906 89.410156 C 125.8125 89.378906 125.964844 89.5 125.992188 89.683594 C 126.023438 89.867188 125.902344 90.019531 125.71875 90.050781 L 98.363281 94.203125 C 98.332031 94.203125 98.332031 94.203125 98.300781 94.203125 Z M 98.300781 94.203125 " fill-opacity="1" fill-rule="nonzero"/><path fill="#a65d19" d="M 99.035156 98.90625 C 98.882812 98.90625 98.730469 98.785156 98.730469 98.632812 C 98.699219 98.449219 98.820312 98.296875 99.003906 98.265625 L 126.359375 94.113281 C 126.542969 94.082031 126.695312 94.203125 126.726562 94.386719 C 126.757812 94.570312 126.636719 94.722656 126.453125 94.753906 L 99.097656 98.90625 C 99.066406 98.90625 99.035156 98.90625 99.035156 98.90625 Z M 99.035156 98.90625 " fill-opacity="1" fill-rule="nonzero"/><path fill="#a65d19" d="M 99.738281 103.609375 C 99.585938 103.609375 99.433594 103.488281 99.433594 103.335938 C 99.402344 103.152344 99.523438 103 99.707031 102.96875 L 127.0625 98.816406 C 127.246094 98.785156 127.398438 98.90625 127.429688 99.089844 C 127.460938 99.273438 127.339844 99.425781 127.15625 99.457031 L 99.800781 103.609375 C 99.769531 103.609375 99.769531 103.609375 99.738281 103.609375 Z M 99.738281 103.609375 " fill-opacity="1" fill-rule="nonzero"/><path fill="#a65d19" d="M 100.472656 108.3125 C 100.320312 108.3125 100.167969 108.191406 100.167969 108.039062 C 100.136719 107.855469 100.257812 107.703125 100.441406 107.671875 L 127.796875 103.519531 C 127.980469 103.488281 128.132812 103.609375 128.164062 103.792969 C 128.195312 103.976562 128.074219 104.128906 127.890625 104.160156 L 100.535156 108.3125 C 100.503906 108.3125 100.472656 108.3125 100.472656 108.3125 Z M 100.472656 108.3125 " fill-opacity="1" fill-rule="nonzero"/><path fill="#a65d19" d="M 101.175781 113.015625 C 101.023438 113.015625 100.871094 112.894531 100.871094 112.738281 C 100.839844 112.558594 100.960938 112.402344 101.144531 112.375 L 128.5 108.21875 C 128.683594 108.191406 128.835938 108.3125 128.867188 108.496094 C 128.898438 108.679688 128.773438 108.832031 128.59375 108.863281 L 101.238281 113.015625 C 101.207031 113.015625 101.207031 113.015625 101.175781 113.015625 Z M 101.175781 113.015625 " fill-opacity="1" fill-rule="nonzero"/><path fill="#a65d19" d="M 90.476562 48.578125 L 91.730469 57.070312 L 119.484375 51.9375 L 118.046875 43.632812 Z M 90.476562 48.578125 " fill-opacity="1" fill-rule="nonzero"/><path fill="#fad2a7" d="M 102.335938 134.757812 C 100.226562 134.757812 98.515625 133.046875 98.515625 130.941406 C 98.515625 128.832031 100.226562 127.125 102.335938 127.125 C 104.445312 127.125 106.15625 128.832031 106.15625 130.941406 C 106.15625 133.015625 104.445312 134.757812 102.335938 134.757812 Z M 102.335938 127.460938 C 100.410156 127.460938 98.851562 129.015625 98.851562 130.941406 C 98.851562 132.863281 100.410156 134.421875 102.335938 134.421875 C 104.261719 134.421875 105.820312 132.863281 105.820312 130.941406 C 105.820312 129.015625 104.230469 127.460938 102.335938 127.460938 Z M 102.335938 127.460938 " fill-opacity="1" fill-rule="nonzero"/><path fill="#331807" d="M 57.039062 141.8125 L 54.320312 142.085938 C 52.363281 142.300781 50.558594 140.957031 50.164062 139.003906 L 27.546875 22.011719 C 27.148438 19.90625 28.585938 17.859375 30.691406 17.523438 L 32.253906 17.277344 Z M 57.039062 141.8125 " fill-opacity="1" fill-rule="nonzero"/><path fill="#ffffff" d="M 100.257812 120.773438 L 78.527344 122.816406 L 80.972656 89.042969 L 83.753906 81.4375 L 91.058594 80.734375 L 93.992188 85.195312 Z M 100.257812 120.773438 " fill-opacity="1" fill-rule="nonzero"/><path fill="#331807" d="M 93.992188 85.195312 C 89.746094 86.753906 85.402344 88.066406 80.972656 89.042969 L 81.492188 81.652344 L 93.167969 80.554688 Z M 93.992188 85.195312 " fill-opacity="1" fill-rule="nonzero"/><path fill="#ffffff" d="M 143.019531 83.117188 L 86.167969 84.980469 L 77.855469 81.773438 L 73.207031 64.765625 L 81.917969 54.65625 L 128.59375 22.988281 Z M 143.019531 83.117188 " fill-opacity="1" fill-rule="nonzero"/><path fill="#d36b0c" d="M 143.445312 82.90625 C 139.960938 83.667969 135.804688 79.605469 132.230469 72.703125 L 131.710938 56.121094 L 124.40625 44.152344 C 123.394531 32.304688 125.503906 23.261719 130.089844 22.257812 C 135.988281 20.972656 143.78125 33.492188 147.449219 50.230469 C 151.179688 66.964844 149.375 81.589844 143.445312 82.90625 Z M 143.445312 82.90625 " fill-opacity="1" fill-rule="nonzero"/><path fill="#d36b0c" d="M 86.167969 84.980469 L 73.207031 85.410156 L 68.992188 75.515625 L 68.347656 63.910156 L 81.917969 54.6875 C 80.269531 64.886719 81.765625 75.605469 86.167969 84.980469 Z M 86.167969 84.980469 " fill-opacity="1" fill-rule="nonzero"/><path fill="#fad2a7" d="M 140.757812 60.457031 L 132.257812 72.675781 C 129.785156 67.878906 127.429688 61.621094 125.933594 54.75 C 125.109375 50.992188 124.742188 47.328125 124.433594 44.121094 L 136.753906 45.710938 C 137.792969 45.832031 138.617188 46.625 138.832031 47.632812 L 141.125 58.535156 C 141.308594 59.238281 141.152344 59.910156 140.757812 60.457031 Z M 140.757812 60.457031 " fill-opacity="1" fill-rule="nonzero"/><path fill="#d36b0c" d="M 141.460938 62.933594 C 138.433594 60.976562 136.292969 57.800781 135.589844 54.257812 C 134.886719 50.71875 135.652344 46.992188 137.699219 44 L 138.28125 44.394531 C 136.386719 47.175781 135.621094 50.808594 136.292969 54.105469 C 136.964844 57.40625 139.046875 60.488281 141.855469 62.320312 Z M 141.460938 62.933594 " fill-opacity="1" fill-rule="nonzero"/><path fill="#331807" d="M 73.207031 85.410156 L 68.347656 63.878906 C 68.347656 63.878906 61.960938 68.644531 63.457031 76.1875 C 65.261719 85.101562 73.207031 85.410156 73.207031 85.410156 Z M 73.207031 85.410156 " fill-opacity="1" fill-rule="nonzero"/><path fill="#331807" d="M 22.683594 69.101562 L 31.703125 85.5 C 33.6875 89.105469 32.34375 93.652344 28.769531 95.609375 L 21.25 99.730469 C 17.640625 101.714844 13.089844 100.371094 11.132812 96.800781 L 2.113281 80.398438 C 1.199219 78.75 0.984375 76.917969 1.382812 75.179688 C 1.441406 74.902344 1.535156 74.628906 1.625 74.324219 C 2.207031 72.644531 3.398438 71.179688 5.050781 70.261719 L 12.566406 66.140625 C 14.25 65.222656 16.113281 65.007812 17.855469 65.40625 C 18.132812 65.46875 18.40625 65.558594 18.679688 65.652344 C 20.332031 66.292969 21.800781 67.453125 22.683594 69.101562 Z M 22.683594 69.101562 " fill-opacity="1" fill-rule="nonzero"/><path fill="#ffaa68" d="M 5.648438 86.796875 L 26.214844 75.488281 L 26.507812 76.023438 L 5.941406 87.332031 Z M 5.648438 86.796875 " fill-opacity="1" fill-rule="nonzero"/><path fill="#ffaa68" d="M 18.679688 65.679688 L 1.382812 75.207031 C 1.441406 74.933594 1.535156 74.660156 1.625 74.355469 L 17.855469 65.4375 C 18.132812 65.496094 18.40625 65.589844 18.679688 65.679688 Z M 18.679688 65.679688 " fill-opacity="1" fill-rule="nonzero"/><path fill="#a65d19" d="M 56.277344 148.042969 L 49.734375 148.042969 L 34.789062 123.613281 L 30.570312 116.710938 L 29.808594 115.425781 L 37.539062 111.367188 L 38.121094 112.527344 L 39.007812 114.296875 L 49.277344 134.390625 L 53.1875 142.054688 L 56.0625 147.675781 L 56.214844 147.949219 Z M 56.277344 148.042969 " fill-opacity="1" fill-rule="nonzero"/><path fill="#361500" d="M 39.007812 114.296875 C 37.816406 117.503906 36.410156 120.617188 34.789062 123.613281 L 29.808594 115.425781 L 37.539062 111.367188 Z M 39.007812 114.296875 " fill-opacity="1" fill-rule="nonzero"/><path fill="#d36b0c" d="M 9.054688 102.113281 L 37.296875 86.597656 C 38.671875 85.835938 40.414062 86.355469 41.175781 87.730469 L 49.582031 103 C 50.347656 104.371094 49.828125 106.113281 48.453125 106.875 L 20.605469 122.175781 C 19.230469 122.941406 17.550781 122.453125 16.753906 121.109375 C 14.554688 117.289062 10.277344 109.929688 7.984375 106.050781 C 7.160156 104.679688 7.648438 102.875 9.054688 102.113281 Z M 9.054688 102.113281 " fill-opacity="1" fill-rule="nonzero"/><path fill="#fad2a7" d="M 41.238281 92.796875 L 39.066406 88.890625 L 31.488281 93.042969 L 28.859375 94.507812 L 24.550781 96.859375 L 17.640625 100.648438 L 10.429688 104.617188 L 10.277344 104.679688 L 18.925781 120.375 L 24.550781 117.289062 L 43.898438 106.664062 L 44.9375 106.082031 L 47.566406 104.617188 L 47.71875 104.554688 Z M 44.722656 105.839844 L 43.867188 106.328125 L 24.582031 116.921875 L 19.078125 119.945312 L 10.734375 104.800781 L 18.34375 100.617188 L 24.582031 97.195312 L 29.226562 94.632812 L 31.121094 93.59375 L 38.945312 89.285156 L 41.421875 93.777344 L 47.289062 104.433594 Z M 44.722656 105.839844 " fill-opacity="1" fill-rule="nonzero"/></svg>